<svg width="25" height="14" viewBox="0 0 25 14" fill="none" xmlns="http://www.w3.org/2000/svg">
<path d="M0.79656 13.5054C0.903622 13.6051 1.02916 13.6724 1.16125 13.7078C1.46053 13.788 1.79321 13.7042 2.01898 13.4617L7.96283 7.07606C8.28265 6.73243 8.7982 6.64119 9.21639 6.85428L13.6333 9.10347C14.6268 9.60927 15.8223 9.4757 16.6794 8.76325L22.2679 4.11825L21.8481 8.87232C21.8106 9.29706 22.0866 9.67714 22.4848 9.78376C22.5327 9.79659 22.5825 9.80551 22.6336 9.81001C23.1094 9.85203 23.5292 9.50034 23.5713 9.02453L24.1847 2.07731C24.2049 1.84881 24.1335 1.62163 23.9861 1.44578C23.8388 1.26991 23.6277 1.15975 23.3992 1.13962L16.7178 0.549633C16.242 0.507605 15.8221 0.859301 15.7801 1.33511C15.7381 1.81099 16.0899 2.23069 16.5656 2.2728L21.2809 2.6892L15.5737 7.43287C15.2485 7.70314 14.7951 7.75387 14.4183 7.56196L10.0013 5.31276C8.89895 4.75133 7.53974 4.99166 6.69665 5.8974L0.752782 12.283C0.427329 12.6327 0.446889 13.18 0.79656 13.5054Z" fill="#5B93FF"/>
</svg>
