<svg width="20" height="21" viewBox="0 0 20 21" fill="none" xmlns="http://www.w3.org/2000/svg">
<path fill-rule="evenodd" clip-rule="evenodd" d="M2.54 0H5.92C7.33 0 8.46 1.18509 8.46 2.63914V6.15215C8.46 7.61548 7.33 8.79027 5.92 8.79027H2.54C1.14 8.79027 0 7.61548 0 6.15215V2.63914C0 1.18509 1.14 0 2.54 0ZM2.54 11.8197H5.92C7.33 11.8197 8.46 12.9955 8.46 14.4588V17.9718C8.46 19.4248 7.33 20.6099 5.92 20.6099H2.54C1.14 20.6099 0 19.4248 0 17.9718V14.4588C0 12.9955 1.14 11.8197 2.54 11.8197ZM17.4601 0H14.0801C12.6701 0 11.5401 1.18509 11.5401 2.63914V6.15215C11.5401 7.61548 12.6701 8.79027 14.0801 8.79027H17.4601C18.8601 8.79027 20.0001 7.61548 20.0001 6.15215V2.63914C20.0001 1.18509 18.8601 0 17.4601 0ZM14.0801 11.8197H17.4601C18.8601 11.8197 20.0001 12.9955 20.0001 14.4588V17.9718C20.0001 19.4248 18.8601 20.6099 17.4601 20.6099H14.0801C12.6701 20.6099 11.5401 19.4248 11.5401 17.9718V14.4588C11.5401 12.9955 12.6701 11.8197 14.0801 11.8197Z" fill="#9A9AAA"/>
</svg>
