<svg width="20" height="21" viewBox="0 0 20 21" fill="none" xmlns="http://www.w3.org/2000/svg">
<path fill-rule="evenodd" clip-rule="evenodd" d="M5.33043 0.0614395H14.6694C18.0704 0.0614395 19.9904 2.0493 20.0004 5.55407V15.179C20.0004 18.6828 18.0704 20.6717 14.6694 20.6717H5.33043C1.92943 20.6717 0.000427246 18.6828 0.000427246 15.179V5.55407C0.000427246 2.0493 1.92943 0.0614395 5.33043 0.0614395ZM10.0494 16.4054C10.4804 16.4054 10.8394 16.0756 10.8794 15.6325V5.13156C10.9194 4.8121 10.7704 4.49161 10.5004 4.31745C10.2194 4.14227 9.87943 4.14227 9.61043 4.31745C9.33943 4.49161 9.19043 4.8121 9.21943 5.13156V15.6325C9.27043 16.0756 9.62943 16.4054 10.0494 16.4054ZM14.6504 16.4054C15.0704 16.4054 15.4294 16.0756 15.4804 15.6325V12.2524C15.5094 11.9216 15.3604 11.6135 15.0894 11.4383C14.8204 11.2631 14.4804 11.2631 14.2004 11.4383C13.9294 11.6135 13.7804 11.9216 13.8204 12.2524V15.6325C13.8604 16.0756 14.2194 16.4054 14.6504 16.4054ZM6.21943 15.6325C6.17943 16.0756 5.82043 16.4054 5.38943 16.4054C4.95943 16.4054 4.59943 16.0756 4.56043 15.6325V8.51164C4.53043 8.19115 4.67943 7.87272 4.95043 7.69753C5.21943 7.52235 5.56043 7.52235 5.83043 7.69753C6.09943 7.87272 6.25043 8.19115 6.21943 8.51164V15.6325Z" fill="#9A9AAA"/>
</svg>
