<svg width="18" height="21" viewBox="0 0 18 21" fill="none" xmlns="http://www.w3.org/2000/svg">
<path fill-rule="evenodd" clip-rule="evenodd" d="M4.81 0.0610237H13.191C16.28 0.0610237 18 1.89533 18 5.0384V15.6836C18 18.8782 16.28 20.6713 13.191 20.6713H4.81C1.77 20.6713 0 18.8782 0 15.6836V5.0384C0 1.89533 1.77 0.0610237 4.81 0.0610237ZM5.08 4.86321V4.8529H8.069C8.5 4.8529 8.85 5.21358 8.85 5.65567C8.85 6.11013 8.5 6.47081 8.069 6.47081H5.08C4.649 6.47081 4.3 6.11013 4.3 5.66701C4.3 5.22389 4.649 4.86321 5.08 4.86321ZM5.08 11.1287H12.92C13.35 11.1287 13.7 10.768 13.7 10.3249C13.7 9.8818 13.35 9.52009 12.92 9.52009H5.08C4.649 9.52009 4.3 9.8818 4.3 10.3249C4.3 10.768 4.649 11.1287 5.08 11.1287ZM5.08 15.8382H12.92C13.319 15.7969 13.62 15.4455 13.62 15.0344C13.62 14.6119 13.319 14.2615 12.92 14.2203H5.08C4.78 14.1893 4.49 14.3336 4.33 14.6015C4.17 14.8592 4.17 15.1992 4.33 15.4672C4.49 15.7248 4.78 15.8794 5.08 15.8382Z" fill="#9A9AAA"/>
</svg>
