<svg width="18" height="18" viewBox="0 0 18 18" fill="none" xmlns="http://www.w3.org/2000/svg">
<path fill-rule="evenodd" clip-rule="evenodd" d="M7.24596 7.97958C6.88138 7.97958 6.5931 8.27155 6.5931 8.64082C6.5931 9.0015 6.88138 9.30207 7.24596 9.30207H12.3332V13.4069C12.3332 15.5109 10.6459 17.2284 8.56016 17.2284H4.43104C2.35376 17.2284 0.666504 15.5195 0.666504 13.4155V3.8747C0.666504 1.76215 2.36224 0.0532227 4.43952 0.0532227H8.57712C10.6459 0.0532227 12.3332 1.76215 12.3332 3.86612V7.97958H7.24596ZM15.3584 5.66968L17.7917 8.16867C17.9167 8.29748 17.9834 8.46065 17.9834 8.64099C17.9834 8.81274 17.9167 8.98449 17.7917 9.10472L15.3584 11.6037C15.2334 11.7325 15.0667 11.8012 14.9084 11.8012C14.7417 11.8012 14.575 11.7325 14.45 11.6037C14.2 11.3461 14.2 10.9253 14.45 10.6677L15.7834 9.30223H12.3334V7.97974H15.7834L14.45 6.61432C14.2 6.35669 14.2 5.9359 14.45 5.67827C14.7 5.41205 15.1084 5.41205 15.3584 5.66968Z" fill="#030229"/>
</svg>
