<svg width="875" height="303" viewBox="0 0 875 303" fill="none" xmlns="http://www.w3.org/2000/svg">
<path d="M202.459 3.09998L184.859 18.2C182.759 20 181.559 22.6 181.559 25.3V48.2C181.559 53.4 185.759 57.6 190.959 57.6H229.959C235.159 57.6 239.359 53.4 239.359 48.2V9.39999C239.359 4.19999 235.159 0 229.959 0H210.559C207.559 0.1 204.659 1.19998 202.459 3.09998Z" fill="black"/>
<path d="M874.959 213.3V74.7C874.959 65.4 867.459 57.9 858.159 57.9H833.859C824.559 57.9 817.059 65.4 817.059 74.7V134.8C817.059 144.8 811.559 153.9 802.759 158.7L793.059 163.9C782.359 169.6 775.359 172.1 770.159 172.1C760.759 172.1 756.559 166.7 756.559 154.5V74.7C756.559 65.4 749.059 57.9 739.759 57.9H715.459C706.159 57.9 698.659 65.4 698.659 74.7V149.7C698.659 157.3 694.059 164.1 687.159 166.9L667.459 175C666.459 175.4 665.559 175.8 664.559 176.2L661.659 177.5C656.859 179.6 652.759 181.3 650.059 182C647.559 182.6 645.159 182.1 643.159 180.5C640.159 178.1 638.359 173.5 638.359 168.1V16.9C638.359 7.59999 630.859 0.0999756 621.559 0.0999756H597.359C588.059 0.0999756 580.459 7.6 580.459 17V180.1C580.459 214.6 599.159 232.8 634.659 232.8C645.659 232.8 658.659 230.1 670.259 225.4L680.759 221.1L710.259 208.8L711.159 209.9C720.059 220.8 732.959 226.3 749.559 226.3C764.659 226.3 780.359 221.6 799.159 211.6L809.759 205.9C814.359 203.4 819.959 206.8 819.959 212V216.6C819.959 240.4 808.759 254.1 789.059 254.1C776.759 254.1 751.959 248.4 734.059 243.9C724.659 241.5 715.259 247.5 713.459 257L709.159 279.8C708.459 283.3 710.559 286.8 713.959 287.8C739.159 295.2 770.559 303 790.759 303C843.559 303 874.959 269.5 874.959 213.3Z" fill="black"/>
<path d="M158.559 174.7C158.559 142 138.759 133.2 91.4589 124.8L80.1589 122.8C65.5589 120.3 59.5589 118.6 59.5589 111.9C59.5589 105 66.0589 105 70.8589 105H132.159C141.459 105 148.959 97.5 148.959 88.2V64.6C148.959 60.7 145.859 57.6 141.959 57.6H90.7589C28.659 57.6 3.35895 72.7 3.35895 109.6C3.35895 145.6 26.4589 156.5 66.4589 163.1L78.4589 165.1C94.9589 167.7 102.359 170.1 102.359 177.3C102.359 184.9 95.1589 185.9 88.1589 185.9C68.2589 185.9 45.6589 182.2 25.3589 177.9C16.3589 176 7.55894 181.8 5.55894 190.7L0.15894 215C-0.64106 218.7 1.65895 222.4 5.25895 223.3C29.3589 229.2 53.5589 232.2 77.2589 232.2C131.959 232.4 158.559 213.6 158.559 174.7Z" fill="black"/>
<path d="M483.359 111.8C492.759 111.8 496.959 117.2 496.959 129.4V224.1C496.959 227.9 500.059 231.1 503.959 231.1H547.959C551.759 231.1 554.959 228 554.959 224.1V112.5C554.959 76.2 538.259 57.9 505.459 57.9C492.059 57.9 477.659 58.9 462.259 65.4C457.659 67.3 453.459 69.9 449.459 72.9L434.259 84.5L433.159 82.4C425.159 66.4 410.059 57.9 389.359 57.9C373.759 57.9 356.859 59.3 338.459 69.1L329.059 74.5C324.959 76.9 319.859 76.4 316.259 73.3L302.859 61.8C299.859 59.2 295.959 57.8 291.959 57.8H281.959C272.659 57.8 265.159 65.3 265.159 74.6V224.3C265.159 228.1 268.259 231.3 272.159 231.3H316.059C319.859 231.3 323.059 228.2 323.059 224.3V141.8C323.059 135.6 326.459 129.9 331.959 126.9L344.659 120.1C355.359 114.4 362.359 111.9 367.459 111.9C376.859 111.9 381.059 117.3 381.059 129.5V224.2C381.059 228 384.159 231.2 388.059 231.2H431.959C435.759 231.2 438.959 228.1 438.959 224.2V141.7C438.959 135.5 442.359 129.8 447.859 126.9L460.559 120.1C471.259 114.4 478.259 111.8 483.359 111.8Z" fill="black"/>
<path d="M188.459 231.1H232.359C236.159 231.1 239.359 228 239.359 224.1V84.4C239.359 76.6 233.059 70.3 225.259 70.3H195.659C187.859 70.3 181.559 76.6 181.559 84.4V224.1C181.459 228 184.559 231.1 188.459 231.1Z" fill="black"/>
</svg>
