<svg width="20" height="17" viewBox="0 0 20 17" fill="none" xmlns="http://www.w3.org/2000/svg">
<path fill-rule="evenodd" clip-rule="evenodd" d="M19.7872 6.83009C19.6518 6.96564 19.4681 7.04309 19.2747 7.04309C18.559 7.04309 17.9787 7.624 17.9787 8.33078C17.9787 9.04239 18.5522 9.6204 19.2611 9.62814C19.6605 9.63202 20 9.91085 20 10.3107V12.7941C20 14.8844 18.3075 16.5797 16.2186 16.5797H13.0658C12.7398 16.5797 12.4758 16.3154 12.4758 15.9891V13.8978C12.4758 13.4912 12.1567 13.1717 11.7505 13.1717C11.354 13.1717 11.0251 13.4912 11.0251 13.8978V15.9891C11.0251 16.3154 10.7611 16.5797 10.4362 16.5797H3.78143C1.70213 16.5797 0 14.8854 0 12.7941V10.3107C0 9.91085 0.339458 9.63202 0.738878 9.62814C1.44874 9.6204 2.02128 9.04239 2.02128 8.33078C2.02128 7.64336 1.46035 7.12054 0.725339 7.12054C0.531915 7.12054 0.348162 7.04309 0.212766 6.90754C0.0773694 6.772 0 6.58804 0 6.39441V3.88681C0 1.7994 1.706 0.0915222 3.7911 0.0915222H10.4362C10.7611 0.0915222 11.0251 0.355837 11.0251 0.682115V3.16067C11.0251 3.55762 11.354 3.88681 11.7505 3.88681C12.1567 3.88681 12.4758 3.55762 12.4758 3.16067V0.682115C12.4758 0.355837 12.7398 0.0915222 13.0658 0.0915222H16.2186C18.3075 0.0915222 20 1.78585 20 3.87713V6.31695C20 6.51059 19.9226 6.69454 19.7872 6.83009ZM11.7505 11.2934C12.1567 11.2934 12.4758 10.9642 12.4758 10.5673V6.69455C12.4758 6.29759 12.1567 5.96841 11.7505 5.96841C11.354 5.96841 11.0251 6.29759 11.0251 6.69455V10.5673C11.0251 10.9642 11.354 11.2934 11.7505 11.2934Z" fill="#9A9AAA"/>
</svg>
